<svg width="170" height="40" viewBox="0 0 170 40" fill="none" xmlns="http://www.w3.org/2000/svg">
<g clip-path="url(#clip0_0_94)">
<path d="M111.478 25.8793C109.576 29.4259 106.626 31.1507 102.662 31.1195C100.028 31.0882 97.7791 30.1602 95.8744 28.3385C93.9698 26.5167 93.0206 24.2825 92.9895 21.6609C92.9585 19.0079 93.8767 16.7737 95.7814 14.8864C97.7171 13.0022 100 12.0116 102.665 11.9804C104.566 11.9491 106.344 12.4584 107.994 13.4802C109.548 14.4708 110.69 15.6863 111.357 17.1862L111.704 17.9861H108.978C107.613 15.6551 105.553 14.4395 102.761 14.377C100.89 14.3458 99.2402 15.0145 97.7512 16.4206C96.1971 17.858 95.4371 19.5829 95.4371 21.564C95.4371 23.5451 96.166 25.2387 97.593 26.6761C99.0199 28.0822 100.732 28.7853 102.699 28.7509C105.522 28.7197 107.616 27.5698 109.012 25.3324H111.738L111.484 25.8761L111.478 25.8793Z" fill="black"/>
<path d="M116.094 12.4927H113.714V30.7038H116.094V12.4927Z" fill="black"/>
<path d="M120.421 37.094H118.073V21.5983C118.073 18.9798 119.025 16.7112 120.896 14.8238C122.8 12.9084 125.049 11.9803 127.652 12.0772C130.158 12.1428 132.283 13.099 134.027 14.952C135.77 16.8049 136.66 19.0079 136.66 21.5639C136.66 24.12 135.708 26.5167 133.837 28.4322C131.967 30.3164 129.715 31.2444 127.115 31.1476C124.451 31.0507 122.233 29.9664 120.424 27.9197V37.0877L120.421 37.094ZM127.621 14.4739C125.623 14.377 123.942 15.0488 122.515 16.5518C121.119 18.0517 120.455 19.7797 120.486 21.792C120.517 23.7106 121.215 25.3386 122.515 26.7135C123.815 28.0884 125.4 28.7571 127.273 28.7571C129.147 28.7571 130.794 28.0853 132.159 26.7135C133.524 25.3386 134.222 23.7106 134.253 21.7608C134.284 19.8453 133.651 18.183 132.348 16.7456C131.049 15.3082 129.495 14.5426 127.624 14.477" fill="black"/>
<path d="M67.5806 6.09961H69.9288V21.5953C69.9288 24.2138 68.9765 26.4824 67.106 28.3666C65.2044 30.2852 62.9523 31.2101 60.3497 31.1133C57.8432 31.0477 55.7183 30.0915 53.975 28.2385C52.2316 26.3855 51.3413 24.1826 51.3413 21.6265C51.3413 19.0705 52.2936 16.6738 54.1642 14.7583C56.0347 12.8741 58.2868 11.946 60.8863 12.0429C63.551 12.1398 65.7721 13.2241 67.5775 15.2676V6.09961H67.5806ZM60.3807 28.7197C62.3784 28.8166 64.0597 28.1448 65.4867 26.6418C66.8826 25.1387 67.5465 23.4139 67.5154 21.4015C67.4844 19.4829 66.7865 17.8549 65.4867 16.48C64.1869 15.1052 62.6018 14.4365 60.7281 14.4365C58.8545 14.4365 57.2073 15.1083 55.8424 16.48C54.4775 17.8549 53.7795 19.4829 53.7485 21.4328C53.7175 23.3483 54.3503 25.0106 55.6501 26.448C56.9498 27.8854 58.504 28.651 60.3745 28.7166" fill="black"/>
<path d="M154.928 30.7037H152.518V20.0983C152.518 18.5641 151.947 17.2548 150.836 16.1361C149.726 15.0175 148.395 14.4738 146.903 14.5081C145.38 14.5394 144.08 15.0518 143.035 16.0736C141.989 17.0642 141.481 18.3422 141.481 19.9077V30.7069H138.974V6.07129H141.415V15.08C142.78 13.2582 144.555 12.2989 146.711 12.2052C148.963 12.1083 150.864 12.8426 152.484 14.4425C154.1 16.0393 154.925 18.0204 154.925 20.3514V30.7037H154.928Z" fill="black"/>
<path d="M159.165 12.4927H156.786V30.7038H159.165V12.4927Z" fill="black"/>
<path d="M80.0106 23.7544L90.0085 17.5987L89.3571 16.4644C88.231 14.4989 86.4753 13.1615 84.0867 12.446C81.6299 11.7366 79.325 11.9335 77.1567 13.0084C74.7433 14.2271 73.1985 16.1957 72.4509 18.9173C71.7157 21.5952 72.0662 24.1232 73.4684 26.4417C74.7805 28.6666 76.7255 30.0821 79.3095 30.7539C81.878 31.4007 84.217 31.0726 86.3419 29.7977C88.0294 28.7791 89.2826 27.3885 90.1109 25.5762C90.9391 23.7669 91.1532 21.8358 90.7623 19.811L88.5381 21.1047C88.7677 23.9951 87.6758 26.1793 85.2189 27.6448C83.6431 28.5978 81.968 28.8728 80.1998 28.5353C78.8194 28.2728 77.653 27.6323 76.6976 26.6605H76.6914C76.6914 26.6605 76.6542 26.6198 76.5673 26.5199C76.3502 26.2855 76.1392 26.0418 75.9438 25.7699C75.3668 25.0606 74.9201 24.0357 74.8333 23.8326C74.7867 23.7232 74.7185 23.4701 74.6657 23.2576C74.6564 23.2201 74.6471 23.1857 74.6378 23.1482C74.6068 23.0264 74.5882 22.9358 74.5882 22.9358H74.5944C74.3028 21.5796 74.3773 20.261 74.8736 18.9767C75.4754 17.4081 76.5239 16.1707 78.0501 15.3207C79.5763 14.4708 81.1366 14.1896 82.7311 14.4802C84.3256 14.7708 85.6936 15.5613 86.8351 16.8519L78.8163 21.8483" fill="black"/>
<path d="M116.928 8.43695C116.928 9.56499 116.022 10.4774 114.902 10.4774C113.782 10.4774 112.876 9.56499 112.876 8.43695C112.876 7.30891 113.782 6.39648 114.902 6.39648C116.022 6.39648 116.928 7.30891 116.928 8.43695Z" fill="black"/>
<path d="M160 8.43695C160 9.56499 159.094 10.4774 157.974 10.4774C156.855 10.4774 155.949 9.56499 155.949 8.43695C155.949 7.30891 156.855 6.39648 157.974 6.39648C159.094 6.39648 160 7.30891 160 8.43695Z" fill="black"/>
<path d="M25.3211 2.00609L29.6608 9.5805L25.3211 17.1549H16.6384L12.2986 9.5805L16.6415 2.00609H25.3242H25.3211ZM26.4719 0H15.4906L10 9.5805L15.4906 19.161H26.4719L31.9626 9.5805L26.4719 0Z" fill="#C63327"/>
<path d="M25.3211 22.8484L29.6608 30.4228L25.3211 37.9972H16.6384L12.2986 30.4228L16.6384 22.8484H25.3211ZM26.4719 20.8423H15.4906L10 30.4228L15.4906 40.0033H26.4719L31.9626 30.4228L26.4719 20.8423Z" fill="#C63327"/>
<path d="M39.1006 12.3303L43.4403 19.9047L39.1006 27.4791H30.2721L25.9944 20.0047L30.3838 12.3334H39.0975L39.1006 12.3303ZM40.2514 10.3242H29.236L23.7144 19.9578L29.1305 29.4852H40.2514L45.7421 19.9047L40.2514 10.3242Z" fill="#B72325"/>
</g>
<defs>
<clipPath id="clip0_0_94">
<rect width="150" height="40" fill="white" transform="translate(10)"/>
</clipPath>
</defs>
</svg>
